#!OML:ASF E:\basketball\basketball\Project 1\Capture day 1\Session 1\Subject.ASF
:FULLY-SPECIFIED
:DEGREES
48
root -36.2334 14.8517 -15.7232 9.1396 55.8828 6.45574
lowerback 0.225108 2.71956 -5.03517
upperback 5.95115 3.93423 -0.983318
thorax 5.80053 1.76455 1.97034
lowerneck -30.4533 18.8441 10.0279
upperneck 14.5125 27.5648 -20.5669
head 14.4891 10.4095 -2.88884
rclavicle -7.36746e-015 1.33186e-014
rhumerus -36.335 0.441293 -93.2173
rradius 85.9843
rwrist -48.126
rhand -14.4807 21.1923
rfingers 7.12502
rthumb 11.6656 -8.46293
lclavicle -7.36746e-015 1.33186e-014
lhumerus -35.1405 -18.6244 106.293
lradius 108.681
lwrist 16.3136
lhand -19.3139 38.8338
lfingers 7.12502
lthumb 7.00217 68.698
rfemur -18.9138 4.82277 15.1657
rtibia 56.2832
rfoot -37.1825 -15.8084
rtoes -8.38294
lfemur -14.6673 19.5165 -20.8586
ltibia 52.1554
lfoot -28.6775 -15.0913
ltoes -26.646
49
root -36.2073 14.8124 -15.7118 9.16126 55.311 6.09307
lowerback -0.115251 2.76285 -4.91872
upperback 6.08037 4.01741 -0.987132
thorax 6.13527 1.80052 1.92878
lowerneck -29.9541 19.3324 11.5912
upperneck 13.2422 28.3311 -23.298
head 14.8879 10.6299 -3.82649
rclavicle -4.46272e-014 2.1419e-014
rhumerus -35.9792 -0.0439281 -93.0597
rradius 85.6446
rwrist -48.5554
rhand -13.8676 21.271
rfingers 7.12502
rthumb 12.2568 -8.34982
lclavicle -4.46272e-014 2.1419e-014
lhumerus -34.2733 -19.2064 106.128
lradius 108.099
lwrist 16.4507
lhand -19.8836 39.4516
lfingers 7.12502
lthumb 6.45218 69.3333
rfemur -19.5371 5.25393 15.2641
rtibia 56.9003
rfoot -37.5372 -15.8023
rtoes -8.3147
lfemur -15.076 20.4119 -20.6863
ltibia 52.7592
lfoot -28.9935 -15.5363
ltoes -26.0895
50
root -36.1654 14.7763 -15.705 9.58772 55.227 6.14052
lowerback -0.722692 2.63181 -4.56493
upperback 6.36865 3.89867 -1.20676
thorax 6.83862 1.74711 1.54212
lowerneck -28.7828 19.8186 11.9171
upperneck 10.8655 28.7975 -24.7054
head 14.1608 11.0036 -4.22924
rclavicle 6.41018e-014 -3.75455e-014
rhumerus -35.5471 -0.812648 -92.9574
rradius 85.4547
rwrist -49.2869
rhand -13.115 21.3614
rfingers 7.12502
rthumb 12.9823 -8.21468
lclavicle 6.41018e-014 -3.75455e-014
lhumerus -32.8375 -20.2258 105.925
lradius 107.246
lwrist 17.2167
lhand -21.8474 40.8539
lfingers 7.12502
lthumb 4.55616 70.7849
rfemur -20.0863 5.10284 15.1007
rtibia 57.5477
rfoot -38.1442 -15.5382
rtoes -7.9681
lfemur -15.5616 20.7403 -20.8073
ltibia 53.3442
lfoot -29.3638 -15.7372
ltoes -25.7576
51
root -36.0997 14.7378 -15.6895 9.561 54.1655 5.92194
lowerback -0.659619 2.82352 -4.75308
upperback 6.12239 4.12455 -0.970504
thorax 6.49524 1.84887 1.89248
lowerneck -28.2083 20.3014 14.3921
upperneck 10.1514 29.8568 -28.4896
head 15.4026 11.2668 -5.56648
rclavicle -8.7018e-014 -4.17448e-015
rhumerus -36.2902 -0.713972 -92.5402
rradius 85.3683
rwrist -49.1616
rhand -12.761 21.4889
rfingers 7.12502
rthumb 13.3235 -8.06516
lclavicle -8.7018e-014 -4.17448e-015
lhumerus -32.811 -20.2583 106.709
lradius 106.812
lwrist 17.2943
lhand -22.6095 41.733
lfingers 7.12502
lthumb 3.82016 71.6785
rfemur -20.5635 5.27971 14.764
rtibia 58.1378
rfoot -38.5253 -15.2145
rtoes -9.22071
lfemur -15.5364 21.7872 -20.9049
ltibia 53.8885
lfoot -30.0762 -15.5955
ltoes -25.8952
52
root -36.0788 14.6979 -15.6711 9.93053 53.5902 5.59721
lowerback -0.756893 2.87267 -5.03941
upperback 5.83255 4.17657 -0.803221
thorax 6.20728 1.86206 2.22271
lowerneck -27.4932 20.6214 14.7
upperneck 8.90781 30.3197 -29.6344
head 15.223 11.5463 -5.84379
rclavicle -3.66758e-014 1.67973e-014
rhumerus -36.6026 -0.412927 -92.737
rradius 85.1666
rwrist -48.0625
rhand -12.7898 21.6804
rfingers 7.12502
rthumb 13.2958 -7.87551
lclavicle -3.66758e-014 1.67973e-014
lhumerus -32.4907 -20.4138 106.842
lradius 106.382
lwrist 16.8891
lhand -22.0328 42.1114
lfingers 7.12502
lthumb 4.37706 72.0462
rfemur -21.5564 5.65447 14.8848
rtibia 58.7353
rfoot -38.781 -15.7997
rtoes -10.4472
lfemur -16.3036 22.767 -20.8242
ltibia 54.5149
lfoot -30.5201 -16.1266
ltoes -25.8905
53
root -36.0329 14.664 -15.659 10.0481 53.1066 5.2565
lowerback -0.927949 2.90907 -4.91523
upperback 5.77316 4.22051 -0.72577
thorax 6.24057 1.88598 2.24491
lowerneck -28.1165 20.904 14.8762
upperneck 8.81075 30.7838 -30.166
head 15.5897 11.6387 -5.85966
rclavicle 2.70347e-014 -1.09332e-014
rhumerus -36.6925 -0.486723 -92.7645
rradius 84.972
rwrist -47.2563
rhand -12.6117 21.8247
rfingers 7.12502
rthumb 13.4675 -7.71993
lclavicle 2.70347e-014 -1.09332e-014
lhumerus -31.8615 -20.8545 106.811
lradius 105.672
lwrist 16.6788
lhand -21.8216 41.9309
lfingers 7.12502
lthumb 4.58103 71.8613
rfemur -22.1122 5.8396 14.9157
rtibia 59.2624
rfoot -39.2838 -15.9104
rtoes -10.8411
lfemur -16.8102 23.5173 -20.7823
ltibia 55.1498
lfoot -31.1248 -16.1521
ltoes -26.6679
54
root -35.9814 14.6257 -15.6495 10.2542 52.4952 5.00742
lowerback -1.03047 2.9237 -4.7021
upperback 5.68928 4.23346 -0.780198
thorax 6.22624 1.90504 2.0746
lowerneck -27.3896 21.3041 15.2931
upperneck 7.17081 31.1772 -31.3641
head 15.2728 11.9342 -6.16459
rclavicle 4.64908e-014 -3.54831e-014
rhumerus -36.8658 -0.941262 -92.6445
rradius 84.9101
rwrist -47.1353
rhand -12.0363 21.8849
rfingers 7.12502
rthumb 14.022 -7.62219
lclavicle 4.64908e-014 -3.54831e-014
lhumerus -31.2874 -21.4269 106.65
lradius 105.126
lwrist 17.2252
lhand -22.5829 41.6921
lfingers 7.12502
lthumb 3.84587 71.6372
rfemur -22.7212 5.91046 14.782
rtibia 59.8157
rfoot -39.8306 -15.5817
rtoes -10.5503
lfemur -17.2979 24.365 -20.9101
ltibia 55.7636
lfoot -32.1096 -15.2288
ltoes -29.2825
55
root -35.9292 14.5862 -15.6381 10.5657 51.8941 4.88149
lowerback -1.10039 2.88919 -4.02072
upperback 5.64425 4.19227 -1.34139
thorax 6.30708 1.93548 1.11719
lowerneck -27.1144 21.9642 16.2028
upperneck 6.15533 31.8148 -32.2558
head 15.3701 12.2544 -6.32597
rclavicle -3.60297e-015 3.68746e-014
rhumerus -36.8629 -1.7739 -93.2549
rradius 84.7827
rwrist -46.8256
rhand -11.41 21.9702
rfingers 7.12502
rthumb 14.6255 -7.49406
lclavicle -3.60297e-015 3.68746e-014
lhumerus -30.7055 -22.5129 105.73
lradius 104.817
lwrist 18.5378
lhand -23.6796 40.6754
lfingers 7.12502
lthumb 2.78682 70.6369
rfemur -23.3101 6.05662 14.5866
rtibia 60.341
rfoot -40.3401 -15.3163
rtoes -10.454
lfemur -17.7487 25.2372 -21.1218
ltibia 56.3083
lfoot -33.1462 -14.0168
ltoes -32.1785
56
root -35.8655 14.549 -15.6247 11.0035 51.4974 5.17849
lowerback -0.648494 2.79521 -4.97125
upperback 5.22671 4.01215 -0.658014
thorax 5.5043 1.80173 2.30051
lowerneck -25.9145 22.2197 16.3065
upperneck 4.92871 32.5094 -33.7978
head 15.3203 12.6733 -6.62429
rclavicle -1.19271e-014 -6.55989e-015
rhumerus -37.8695 -1.37841 -91.9727
rradius 84.8203
rwrist -46.4865
rhand -10.9468 21.9964
rfingers 7.12502
rthumb 15.0717 -7.43491
lclavicle -1.19271e-014 -6.55989e-015
lhumerus -30.8761 -22.0686 107.039
lradius 104.228
lwrist 18.4155
lhand -24.3307 41.3703
lfingers 7.12502
lthumb 2.15798 71.3392
rfemur -23.5491 6.00729 14.0953
rtibia 60.8538
rfoot -40.7258 -14.9572
rtoes -11.5022
lfemur -17.8658 25.8666 -21.5076
ltibia 56.7999
lfoot -34.1987 -12.7477
ltoes -34.8775
57
root -35.8029 14.5148 -15.6153 11.4135 51.1379 5.37897
lowerback -0.0835903 2.79048 -5.13293
upperback 4.69481 3.9387 -0.548031
thorax 4.60799 1.78619 2.45034
lowerneck -24.917 22.3734 16.748
upperneck 4.03288 32.7377 -34.6796
head 15.1905 12.9062 -6.91562
rclavicle -7.59357e-014 1.37161e-014
rhumerus -39.0234 -1.81936 -91.3384
rradius 85.0528
rwrist -46.3797
rhand -10.3684 21.9776
rfingers 7.12502
rthumb 15.6288 -7.41104
lclavicle -7.59357e-014 1.37161e-014
lhumerus -31.2504 -22.1852 107.533
lradius 103.658
lwrist 18.2881
lhand -23.9832 41.1097
lfingers 7.12502
lthumb 2.49359 71.0749
rfemur -23.8703 6.05605 13.6372
rtibia 61.3348
rfoot -40.8838 -14.7429
rtoes -12.8331
lfemur -18.1089 26.4198 -21.8842
ltibia 57.3455
lfoot -35.128 -11.5031
ltoes -37.1594
58
root -35.752 14.4788 -15.614 11.4847 50.7505 4.92663
lowerback 0.391475 2.82953 -4.36511
upperback 4.23348 3.92913 -0.791397
thorax 3.9172 1.83767 1.7321
lowerneck -24.7493 22.6022 17.3328
upperneck 3.68997 32.883 -34.9737
head 15.2554 12.9963 -7.02827
rclavicle -6.27663e-014 2.72335e-014
rhumerus -39.878 -2.87372 -91.1538
rradius 85.3641
rwrist -46.4197
rhand -9.6257 21.9012
rfingers 7.12502
rthumb 16.3441 -7.43015
lclavicle -6.27663e-014 2.72335e-014
lhumerus -31.2068 -22.6015 107.008
lradius 102.703
lwrist 17.4981
lhand -21.9155 42.7583
lfingers 7.12502
lthumb 4.49035 72.6907
rfemur -24.5017 6.39147 13.6559
rtibia 61.7882
rfoot -40.9879 -14.5245
rtoes -12.9473
lfemur -18.78 27.0239 -21.955
ltibia 58.0323
lfoot -35.8964 -10.2417
ltoes -39.3275
59
root -35.703 14.4381 -15.6148 11.2706 50.3948 4.22746
lowerback 0.774565 2.64857 -0.405034
upperback 4.14384 3.72615 -3.62325
thorax 4.06013 1.94657 -3.40865
lowerneck -25.2571 23.3328 20.1552
upperneck 2.3705 32.2332 -34.8364
head 15.0581 12.7893 -7.51423
rclavicle -5.22804e-014 1.15295e-014
rhumerus -39.1665 -6.33817 -94.7847
rradius 84.9691
rwrist -46.3132
rhand -8.42344 21.866
rfingers 7.12502
rthumb 17.5014 -7.3662
lclavicle -5.22804e-014 1.15295e-014
lhumerus -30.539 -25.2895 101.999
lradius 101.977
lwrist 17.9696
lhand -21.5772 43.1302
lfingers 7.12502
lthumb 4.81705 73.0555
rfemur -25.0417 6.82206 13.9221
rtibia 62.2253
rfoot -41.2411 -14.1408
rtoes -13.0224
lfemur -19.4133 27.6269 -21.8045
ltibia 58.8049
lfoot -36.5811 -9.08601
ltoes -41.3216
60
root -35.6478 14.3957 -15.6157 11.1656 50.1785 3.74343
lowerback 1.25738 2.48561 1.30787
upperback 3.88403 3.50997 -4.5473
thorax 3.67776 1.91715 -5.37575
lowerneck -25.1308 23.7391 21.5096
upperneck 1.51249 32.1899 -35.2389
head 15.0285 12.8257 -7.81771
rclavicle 8.01102e-014 -1.74931e-014
rhumerus -39.2645 -7.66855 -95.8949
rradius 84.9031
rwrist -45.4901
rhand -7.8312 21.8468
rfingers 7.12502
rthumb 18.0713 -7.33373
lclavicle 8.01102e-014 -1.74931e-014
lhumerus -30.2425 -26.5661 100.202
lradius 100.995
lwrist 18.1843
lhand -21.6502 42.639
lfingers 7.12502
lthumb 4.7465 72.5658
rfemur -25.3925 7.00869 14.0518
rtibia 62.6466
rfoot -41.7376 -14.4098
rtoes -12.9068
lfemur -19.9227 28.0795 -21.7596
ltibia 59.558
lfoot -37.2712 -7.82335
ltoes -43.1953
61
root -35.5862 14.3554 -15.614 11.4191 49.8171 3.63878
lowerback 1.80665 2.43802 1.98577
upperback 3.43773 3.42883 -4.82183
thorax 2.95653 1.8821 -6.08781
lowerneck -24.744 23.9456 22.2253
upperneck 0.991207 32.325 -35.7437
head 15.0761 12.9319 -8.03092
rclavicle 5.24792e-014 -3.49861e-014
rhumerus -39.8018 -8.15522 -96.0494
rradius 85.2141
rwrist -43.9627
rhand -7.73438 21.6858
rfingers 7.12502
rthumb 18.1644 -7.48609
lclavicle 5.24792e-014 -3.49861e-014
lhumerus -30.4876 -27.2952 99.848
lradius 99.9419
lwrist 18.088
lhand -21.9579 41.8952
lfingers 7.12502
lthumb 4.44939 71.8285
rfemur -25.7857 6.90875 13.7639
rtibia 63.0678
rfoot -42.2629 -13.7214
rtoes -12.7409
lfemur -20.383 28.6214 -22.0481
ltibia 60.2324
lfoot -38.0274 -6.40523
ltoes -44.9404
62
root -35.5237 14.3238 -15.6098 11.5201 49.2387 3.59014
lowerback 2.65285 2.42122 2.86081
upperback 3.04826 3.41191 -5.31789
thorax 2.16429 1.8813 -7.167
lowerneck -24.8649 24.1558 22.917
upperneck 0.936176 32.3456 -35.7457
head 15.1961 12.9238 -8.10602
rclavicle -7.11649e-014 5.56597e-015
rhumerus -40.1788 -8.86559 -96.3426
rradius 85.9603
rwrist -42.883
rhand -7.54445 21.189
rfingers 7.12502
rthumb 18.3471 -7.9658
lclavicle -7.11649e-014 5.56597e-015
lhumerus -30.9476 -28.0415 99.2002
lradius 98.9237
lwrist 17.5874
lhand -21.4482 40.9606
lfingers 7.12502
lthumb 4.94156 70.883
rfemur -26.0993 7.54482 13.3159
rtibia 63.4774
rfoot -40.7665 -15.7364
rtoes -20.3634
lfemur -20.4993 29.3817 -22.2796
ltibia 60.8184
lfoot -38.7471 -5.10674
ltoes -46.2151
